<mxfile host="Electron" modified="2023-11-30T11:10:23.947Z" agent="Mozilla/5.0 (Windows NT 10.0; Win64; x64) AppleWebKit/537.36 (KHTML, like Gecko) draw.io/21.6.8 Chrome/114.0.5735.289 Electron/25.5.0 Safari/537.36" etag="rLPsqc8BecO-x7JvXt6d" version="21.6.8" type="device">
  <diagram name="Page-1" id="74e2e168-ea6b-b213-b513-2b3c1d86103e">
    <mxGraphModel dx="1101" dy="786" grid="1" gridSize="10" guides="0" tooltips="1" connect="1" arrows="0" fold="1" page="1" pageScale="1" pageWidth="827" pageHeight="1169" background="none" math="0" shadow="0">
      <root>
        <mxCell id="0" />
        <mxCell id="1" parent="0" />
        <mxCell id="duzxFuz499XpBN5VaYQ0-2" value="" style="group" vertex="1" connectable="0" parent="1">
          <mxGeometry x="360" y="50" width="120" height="60" as="geometry" />
        </mxCell>
        <mxCell id="4oTWKZa-oMYPQXvp2SXr-9" value="Начало&lt;br style=&quot;font-size: 14px;&quot;&gt;&lt;b style=&quot;font-size: 14px;&quot;&gt;main&lt;/b&gt;" style="strokeWidth=1;html=1;shape=mxgraph.flowchart.terminator;whiteSpace=wrap;rounded=1;strokeColor=default;fontFamily=Times New Roman;fontSize=14;fontColor=#FFFFFF;fillColor=none;labelBackgroundColor=none;labelBorderColor=none;" parent="duzxFuz499XpBN5VaYQ0-2" vertex="1">
          <mxGeometry width="119.99999999999999" height="60" as="geometry" />
        </mxCell>
        <mxCell id="duzxFuz499XpBN5VaYQ0-1" value="&lt;b&gt;&lt;font style=&quot;font-size: 14px;&quot;&gt;Resh1(x,y)&lt;/font&gt;&lt;/b&gt;" style="text;html=1;strokeColor=none;fillColor=none;align=center;verticalAlign=middle;whiteSpace=wrap;rounded=0;" vertex="1" parent="duzxFuz499XpBN5VaYQ0-2">
          <mxGeometry width="119.99999999999999" height="60" as="geometry" />
        </mxCell>
        <mxCell id="duzxFuz499XpBN5VaYQ0-8" value="" style="group" vertex="1" connectable="0" parent="1">
          <mxGeometry x="340" y="130" width="160" height="150" as="geometry" />
        </mxCell>
        <mxCell id="duzxFuz499XpBN5VaYQ0-7" value="" style="rhombus;whiteSpace=wrap;html=1;" vertex="1" parent="duzxFuz499XpBN5VaYQ0-8">
          <mxGeometry width="160" height="150" as="geometry" />
        </mxCell>
        <mxCell id="duzxFuz499XpBN5VaYQ0-6" value="" style="shape=image;verticalLabelPosition=bottom;labelBackgroundColor=default;verticalAlign=top;aspect=fixed;imageAspect=0;image=data:image/png,iVBORw0KGgoAAAANSUhEUgAAASEAAACvCAYAAACy0GgHAAAAAXNSR0IArs4c6QAAAARnQU1BAACxjwv8YQUAAAAJcEhZcwAAGdYAABnWARjRyu0AACgDSURBVHhe7Z3frx5FGce33ItYucKGGJGLhiY0aCnB1qRN2lpIDE00tXrTBFIqXkpqxXphOC1gxAsTaTWSGCNq4w0haYU2gUSNAYEGI0YSWkMI6RVSwT+g7me63zpnOrs7s7vv2X3f83ySOXve3Z1fzzzPszOzu7NriqK4XIZlXLhwofjMZz5T/TIMw5gd1/HnxIkTxeXLl68Gc0CGYawUzgnddttt7odhGMZK44Zj9H4MwzDG4Lpdu3ZV/xpD8rvf/a5Ys2aNhYRgrG6u+9znPlf9awzJH//4x+KRRx5xc2yGYdRz3Re+8IXqX2NIzpw5U+zevdv9rwl/C/FgrG7WXLhw4bLdDRuWv/3tb8XGjRvNwAwjgevMAQ3Pyy+/XOzdu7f6ZRhGE+4WvTEsL730UrFt27bq1zAw0f3QQw8Vn/3sZ69O6G7atKk4ffp0dca0+Pe//1387Gc/K772ta8Va9euvVpmftNTNIyrlEMGY2AQ6xtvvFH96s+f/vQnl+YnPvEJ97/28Zv92jclnnjiCVe2z3/+85cZ8sOJEyeu1uP99993+wzDekID8+c//7kojay4/fbbqz3D8dRTTxVbtmxx/7M9fPiw+/8vf/mL206RkydPXn0C/8EHHyx4JOTSpUvFP//5T7dvXqAX96Uvfan6tZwf/vCH7jhtb+RjTmhg/vCHP7ghx5DgcMoLxjXpvvPOO2578803u+2UOHTokCtzOOd4/vx5t73pppvc1jDMCQ0Mt+a/+MUvVr9mB/MqzBOVw53Bnd6soLy8HM3zU11viJAGPY8m/vWvfzmZ1PVcjGlhTmhAmIx97bXXijvvvLPaMxswsgceeKC45ZZbiueff77a2w7DBYYNbUY8C8ibifVvfvObxdGjR6u9aVDf733ve26Ce9++fcWLL75YHVkO8icP5MIw0JgPzAkNyNmzZ13PZJaPPdADIg85oE9+8pPVkelC72Xr1q1uDot5rRRwKMSjN0Ndjx075uaScGJHjhypzroC5+JYb7311uLVV1915xvzgzmhAeFVjZ07d1a/4uiKHuuRcLtdt+AxwBAcELf+MWaOz9oB+eVhS4/EhzJwTCF2651z6J2cOnXKzRO1QRqcj0Oh1/PCCy84p/vb3/62eP/995dNzgsmuX//+98Xzz33nHNCBw4cqI4Yc4G7R2YMQnkFvlwaW/XrWsqruAvcnuZcxK/b17oNrxDeduc84oT7H3nkkcu7du2qfjWjPLh93kZp9C5dyrp3714Xj22IbrtTthBk4d+iB9Ij3bAMnMO5qj/pcY4fNxU9HpAqlxSa0lN+U3xUYh4wJzQQPBeEIjbhK6kUF2MnLs/O4KAwulg6voGGgXgp5DghyiEHoLoRQuSEqIcPcfUcUyyE56tsBBxrH8wJzRc2HBsIXtUolbT6FccfRtx9991u++yzz7pJZu7mMNRgPqlsF3dMMKRhwruOT3/609V/w0E5NLfFM088+wThkIunw8teyzV36H70ox+5OZw61q1bV/13BW7ZS37M/zD8Y+gaG+IZC8YVX2SkQI+g7klfhiopPQxBOoifkNqTyYGrttJPDU0oPb8Ho15b2KvpA2kiRw1XCfQC6XHVyT7EekLzhfWEEmCClrs0vBn/9NNPV3uXwy1hXclTYFJZvYuHH37YbafM9u3b3fbdd991W6C3w6TxkM8p0ftiApuHGpnM5kVgeoEHDx4sbrzxRpfXVN+XM7phTqgFXsL81a9+VezZs8f9fvzxx90tYZ8ur2pwB0jDlbfeestth4Tb9+VFZlkor9TuWHnlvuYYoYkNGza4rZ7Roc7Hjx8vfvGLX7jfs+Cee+5xQ9Gyd+Q+xsCwD2f/k5/8pDrDWATMCbXA+04Ygv/eE88D+fDuVtuteR8cEGmWwxj3+80333TbKfOpT33Kbemh4IT379/vnNks3pELoXeE/MkbR6oLgrEYmBPKQA/JhQ/L8YzKfffdV/2Kw3M0PGeDA6IHwYSunqwmvpjqRKycDb2S73//+67nl/LcTyo4NnpXbQHuuusutzUWhLIbbmQQTtBqgpkJ1To0gavgT+Tq1juT3gR+p07A5qLb4EykdkF159Z7U327oLKlhLoJYiAdyZRyNj23lUNTvjYx3Q/rCWXCMASefPJJt33llVfcXIVuZ8f473//67acxxDMn8j9wQ9+4HoVTHo/9thjk34V44YbbnDbX//614317cLHPvYxN9xNCbGPM3DjgN4mr4focQaGzvfee+/VJ7qNiVI5IyMD3T7mysft9b4P160UfXpC9N6I6/fiVhPUvXSA1a/lWE+oH9YT6sDS0tLVLUt3zMsXS7QuUcpcjt4F0zwW73GFvTjDGAJzQh3AEBla8XIlE7WbN2+ujiwGmgBmiEg9mUg3B2TMCnNCHVFviIf15mE5jRw++ugjt2WuqhxuFm+88YY5IGNmmBPqyI4dO5yRfvWrX632LA48JMiw7YMPPnDvs63Es0DG6mUNE0PV/4ZhGCuO9YQMwxgVc0KGYYyKOSHDMEbFnJBhGKNiTsgwjFExJ2QYxqiYEzIMY1TMCRmGMSqTdkL6/C9fXjCM1QJLCrM0CatvrgYm64RoAN7LYk0Y3lQ3jNUCS9mybhUreOKMwjXNu6I1l2Lw0jLHwq8CrwSTdEI4IJaO4L0lfYtraFimgl6WGobA55l5UXO1feuKHqeuvvpENYHfXb5soW/D6xPSBOSqt/NTQAc2bdp0NT7/z3vPAFmGdaqTL/JiwTxkOaQjmiS8OzYlWDaUZTlnuVCYFvfyl/9kSVV9TZT9LLXaBS10NkWQLXIN60adCf63vZALcmB/zkJmxGd5VeJqkS/y1UJwKcvCIj+VB0hTn6Ke10XVKDflR/7UBzloGdqmOg1pDyzKRn4x+ix415fJOSEJSsYwCyTwWONLMXIcCWXFYGRohClBPSVXgpyDqKsvis8x6pWKjC1U5tTVBzE6zgtXMRzTSPqiOoVy1H4C/9ehdmiTXRtTdUKTGo4xLGChMNawmeUaPVphMLZGjvJlGYs26Eqz6iAf5ePjfKUiuTWQS0OszhgPDTcZXjG0Ra4sUMb3u9avX1+ddQVkwbA35OMf/7jbpshC+B9H9Pnwww+r/5q5ePFi9d9ytMbRPKIPZh44cMBtBdMMzHtC+Bkpn/vvv99tf/Ob37jtwuFc0UTQcKipezpr1BPSUCCEKxZXC7/Xw//sa7qaxdDXNZSGH5/elYYl4RW0DuIgO6VJoCtPOl2Gl7oCMxRKRT0hv2dFvShH2LuJwbmxOlMn0sjtIftyJMSu9H5b5tQ1FbVH7MsfknGbbCgj9e/DVHtCk3JCElLX+Zi+yIBQmpiya16C0Me4gXgoFls5X99wJQtCivGiPJRJcShrn8/dUC7SI+TUEbmpHMRDuflNeVIdiOqOXHBKtAchpxxAfsRDDsSVbMJ0OE+OKLwA+u2QGkK0Pzacot04FjrdEOlenyGZ6hLDnFCFFGGloQF0teTKVGcsHCfQmKkGVQfxfWMgXSkiZcFwKRflSVEMKZgcW1eIK4dGmrm9O5AzJw3Kk2s4lIG4CnW90hT8vGXIMXmqrCGzdkK6AMXi+chZhU4yB3NCCaQ0xpBI8AooIUpR52D8bj1Ky+8+vQ0fKYgcQK4jodzEU/kwOBQ2x1kqLoG0cIC5TojzyVtloV4+yFzDk/AYUF7JQOXw66D0Vc4cZPDE90HW7O9j4E2orDEn5OtgE3JCfZyEOaEEUhojdBwpIUWwKKKUG2dUZ3wYBMoqQ9L5XQzWR3MDGF2uA/LBKfpGSno4y5gB1EE9pPTET3W06sGQH2lIRvz2URtSZx9kSxwC8eX0+R06U+3PQfmGPR7yifWChoI8CbE2QLY63oQ5oRUipTEkrJyQI1g1VHi1jIHRocAYnvLCMLoMH3SVDg22K3IkGJfKJmcZGnQdUnzq1wZpcp5vzNpHGr5MNFwLnbZk7++PtQfH2del50I8glBaQ/VoYyjPmBOSjKlnEzovR5dDzAklIIMZExlITjkwNuKpkXProB4E8XKv7ilgYOpVEGLGEEMGmhJHcguV2K8b5yAr2jk8T3mFxsj5yIRjctA4pDajrUNpqT6k03TB8ds0NYRIr2NOU86l7aKn82JppKK6xBjTCU3qOSG9qDrmaxPXX3+925aG47Yp8GwRzxzxHfnSmIqyt1EdaYe6btu2rTh8+LB7ZkTfUR8SPuHDc0ClQbvnhPjuewp6Tgja4uj5oPB5ID4X9Nxzz7n/eV6JD0Xu3Lnzmq/A6vmg8PUEZItcaQ8+woiOIONnnnmmOiOP0iG47XvvvedeVfnrX/9a/PSnP3X7ZgX1hb///e9u63Pu3Dm3ve+++9y2Dp23bt06t10oKmc0CTQk6ePtU9BVJXZ119xMbFjE+amhCfInffUSdBVUb0VDA3oB9BBSIK1YOWKBdAW/yTN2BdR8BVfyNtQT4lw/faG2JVDWEL/XFTvOPh33h3a5qO2RObKf5TBMSMahHJET+ylHTGY+xOW8Pky1JzQpJyRFjDmAIZEi0jWXwqMEMhT2x5SCY6mhCTkbgp+XjF5OiW2qQ84ZNqBwQsoXGiT/s48QcwoxNNRhS7lJm3Rw7KTj15s24BjlVv11AeBc2oL4BM7FCOU4OIf/OaZtKpyrMpDfSqG6s6W+BO3z5R5jKLswJ5SIBBVzAkOBwGnQ0HAxHhqhLm/OTw1NYDjkxzbMi7gcw+hyeoQYVFiGuuA7FRRccWXgyh8ZpfbEgLrIYdSlg8HpONuwV0Od5cwIlMl3NJSdsuoYZc/RFfWoyGOlCWVDvVIcvJxzjrONIbnFMCfksVK9IWP1gbPC+RByHNeYDGkPU3VCk1tPiJf6yquhm4RcLSvLGbOBNY30kjK6xKQ4MNE9yxekh4JJ+rK35G5YPProo9XexWOSi5qhODgi3lDnTfCFXtDJmBkvvvhicfLkSbeAGHfmyuHb3DggFoDDaeru4DyUuSuTdEKAI9Ltal3BDCMHXbzoSZw4caJ49dVX58KYeXRgaWnJhUV3QLCGMVn1v2EYCwzLxLKuVMzk6Xlt3bq1eOKJJ655hmvWmBMyDGNUJjscMwxjdWBOyDCMUTEnZBjGqJgTMgxjVMwJGYYxKuaEDMMYFXNChmGMytw4IT6MyCscWvjMMBYdnpzmAcNFf4dyLpwQjcCj95cuXSrOnDlT7TWMxebBBx8s9u/fXxw5csQ5oy7vUPIkNO/O8TJvDNLl+JhM3gnhgHj5kOVJCbxlPyQ0LHnwrhq9LBqEsGnTptqGW3T0eWtkIHkgG/Z1NQTk66eFbFPTohdM3nzSmvhs+c3+eYR6x+oTkwdye+WVV9yxro5o8vDaxlRhLRUtXDUrtMaKv/AWC02x5oz2d4H1aliwK2dhspWGsoXrx/CbelN/LbiFXJCD9uesxUMekqPiKY8U2VIGdIB81T5a+4YFwuYNrWlE2bVIWduKntDVFtrWCWpaY2ilmLQTkoBylD4X8ogpMysAkjdByp8CjS6DJdQ1/lhQFxQZhaZ81N9HDiKsM22gOuU4Vq0kGBLLO4ZkKYMVUzCeLqg+oQy1v8kxd1lh0ZxQDzCCtkaZJWo8QtsSnJSVq5m/dKeuWjkObFbgQFB6KZwCss1RaMULl2RtQnF85NBSnJDKHJaTXkOY7tTxHXmILnroTR1dbMKcUA/URc256g5JilJwjtaLVuA3+3PAyUkZyC+ML+VTSHUCpIvCqtdDwHiRaW7v0jegNqfsI8fsO+OcKzrl51xfD9Q2XXuZfk8wTIO0VeahdU/lpg1CfPk2yYWyNelkiDmhHkg4OQo/FCiErrQxRfQVldDVsIH6kZZ6U6QXUzLOU35tvSuOq/wE0kcJ2+I1IWeQcxUG8iUezhn5yCmGjrYOGRF1IL5k1NUBkT+BtNSGkovyUvCdQXgsJYRllCzQ7RiK1+T8dNHzy9aEyl0nL3NCDUhBVhKUEQUgb0JdQ0uZCKnGVAfG4DtaXaHDvOWEUpyAbzBc9btC2agfikq5coZhgjTkEEmD8rAvB+qs+JSljzP15ap2pM2RL+mTF+mz38eXaWrIdUJq+zqHAX6ZU1C569KcghOa7C36UhGq/1YGbn+Wjsc9DkDe+mpmjLvvvvvqlzzvvfdedyubB8u63DJm6U6+UiqU7z/+8Q+3FS+//LLbPvzww27bxE033VSUyuX+P3bsmLslzoOeOV+25Rb6jTfe6OrHanx33nnnsi+ypnL27Fknz9LA3HNeu3fvXrZcKeXSrXtu5Yewj2VZFX/79u3LHtPg8Yq11a3ulEcqtmzZUv13pR3h2WefLR544AF3O1yPgZS24Y4J4rEvJ+SuUIiMU9EXbxeCUliThKK1FU9ePCe0wVWaq0zKVYmrJ1dOnUugu5x6lYqhK13Y46FnltIL8uGKTnrEVfnoldCjyemN0BtSb6buKh5DsuFqjEyIz2+/5wdqx7BMikN51VPhdyhfySy3V0p+xCPkyrYLKmedDCXjJp1TGk3n+MxDT8icUA1+9zs0mhA5Ln8eBoNBsdvihihfX1FJm/RwKl3BQPtMolNHOYGUYZmMxXcY2odT9B1OzMFKDv7+ujbhHNLogurUR7apqP51Tkh1o551KI06pxIimdWdb06oAV29x0RlSG1wwDia7r604V+d9Zu0uszHxMDYSEt1qzOIGBh7apy69lMaOGzqRlmon++UQOeFBqneEXGQNSF2XgrKg9DmjH0HmBrCtlfZ6xym4jVduEiTc3zn3sQ8OKHJzgnpRdWceYyhKRXdbXPmQpjfOXr0aPHBBx+4b6dt2LChOpIG8yXKlzmmb33rW26ugPeIhoD5DtI6f/58USposWfPnupIOyrXDTfc4LZNMA8E4WsGzLmUiu8+58SnnL773e8WL7300jWftdH82kcffeS2gnmb0qDc/NC2bdtcQM7+XE8KvCbBfBJx4c0333TbWaI5H2QTykV6XjqoZXOEIefOnXPbdevWue1CUDmjycEVkuKlevyukEfsyu73SMKuOr+5wqSEMG4KujpxpeaKn5sGZY+VJRbCqy55k2fYMwENN1PaRD2hWA+OtHWcIWEM9VLqjmtoSTqxssbgfGSptKk7v/mfuommnkhf1LahDPXsVFvPmfrSPqnQxk3pqjxjMlknJOVAYWYJeRAwFikzSthkcOoSp4Q2pYrhp5872QpSvJQQOmDfAcr5+Yab2h6UW3lgYHJ6yJk8kK9kzJbzqbfkRZ4YG8c1d0V82oMycEyOiP/ZT6hzWtInBb9dVQ7aXW2f6thyIX3KS6A+wJbf5NtEF5sgbeLU6aE5oRYkoFkpBNA45KMrM0EKLiUJQYGJkxJ8ZU9FvcCuz/ig6LGyxEKYhwxZhqnAubl1QX5yFLF0aFc5NwL/U3Yh50d76BzKRZtJJ/hfx0m7zmmTLufQzmE9iKM0KO8s9Q0oiy8XylTnJHzUW6rTyxjmhHrSxfPPO7pSrqY6G+10tYV5cEKTXk+ISdTyqlUcP37cTSIuIjwkyYOOTFTysB0TrXpozjAA3Sh7Tm5hv0cffbTauzhMflEzDBJHxN0Mnq5dtEWdeBr54MGD7unk73znO+aAjGXwxDh3Ebl7+Pzzz19zF3ERmLwTAgyTW7pAgywK3IYuh17uf650p06dMgdkXIUe8tLSkguL6oBgDWOy6n/DMBYMelJbt251z1bF3mVjOoDe+JhuwJyQYRijMhfDMcMwFhdzQoZhjIo5IcMwRsWckGEYo2JOyDCMUTEnZBjGqJgTMgxjVGbihHhASu9EGYYxe3j6Xt/4nzcGd0K84/XlL3/Zrdg31GqAXfC/4tA1GFfoK0tj9vCy9y9/+cvi5z//ufv6y5grkmbDE9NDobVf/DVhxoI1WrS2DNXsEowrSJYxGaUEY+VgLSTWXMIOZ70u0lAM9toGQy/eBj9x4sSoPSCga1oazqjvwywKJsv5gzZj2Q/WtObF16kzyHCM5TVYsHzXrl2jOyDgg3u8lW70x2Q5fzA0O3z4sHsxdR7W4RrECT399NPu6wf79++v9owLX29gcTCjPybL+eT+++932yeffNJtU+GGUt08HpPeHIt9KbcPgzghJsOAdX+mwMmTJ4sdO3ZUv5bDsFGCJvAJYcp9+vTp6gzDp06W9H6ZsGYSVLLk7gw3JrpMiqLYtIOfFkqfuohd3/iLBmsP0YNlHa7JT1IzJ9QHLSDOWrVTgAlUJuZCNGFHWVlvV5N2rMGrRc67LizPwukpC5WPAWsTU68uNwvqZKl1sAn+ovFaoJ+gmwIpkAZxuLGhdkGe2tdG3/iLSpcPJjStOS2Z5iy0n0JvJ6SCTcUIUbqY0PWlgvLqUO35P1JiAkabgoxbDmwqTlhQJykUoYvi1MlSzhwlDyEOx7ijlgrnEieEfSly7Rt/UenSQZDOxJiVE+o9HNMXIXO/NDorzpw5U+zevbv69X9ef/11t73jjjvc1scfRl68eLH671ro2jPRx3COO0bHjh1zc2Gl4RVHjhypzhoPut0MkRhi7tu3z01MUk7uWK5fv746K506WWqp3dtuu81tfb7+9a+7bemk3TaF2Lk5w6i+8RcVfckVPZgyvZ3Qf/7zH7e9/vrr3XZMMEI+v5z7SeA2SJe5jltvvfWqcXMLtOxtFGX3360LnZonaWkehXkLbqcKDId8dCwFOUbS3Lhxo3OMgGMsr4Tuc8/cscxdn3hWsoyBowRfFj/+8Y/dNsW5940fQ86ctgifQmb+kPbh2NB3n5C75izJP5yrpI4cU2h7K6HsqbutL5vJUfWIOkMShNRhTF8YZtTlxfAgNtwCDRNiXVM9iEe33od8NPTQcbqkXetK95g02Gq8TrmEusKElC40ZdFwkEDdc+diusiSOpBfbAiuYa9frzbUzSc/5nSIS71S69I3fgjxCaSlukpO+o6Xgj80UTlygh9f+kFe0g/qEaJhFqFNF6VTqUOoMYZjgzmhWYIy0ChSiDoFR4AYVgzSqJuYZr+cgw/HVL/Y3Egu5OnnQbrkCzIc8iQvytiGFCZW9jqGkCV5UVaCfw7/s4+4km8KftsQn/qvZPwQ38hkeNRN9UZmGD/7ffo6IcrstyN5hecA57C/ru18pCNhGnXo/Bir2gmhACgWlScvGidUMn5zrOnKwDkSsh9IL2bEpOWfj+FSjti5XVDaNG5dGZrAmUhRCfQEkFWTAQ4lS475eSvgDJryjyHnpfRCJae8Sj9mAH3jNyE5IVvqlmL4Q0Ge5E07+6iX1NQ+wpyQR8z420IMNQwC8aHrjZLUIQeEovqGSjwpL/tj0Njkp94DgbxQhlyD85FxkH8fx0YdJBelh7G0KUtXWVJWZME5GvIgBxlHTn0oJ+dTVuRfF1/6E8q7b/w2OJ94hJV0QCCjD/NF9qllUb1XhRNq88qqXE6IgQA4hqL5CkWjYNR11BkcKE1CWz1CgyfwW8aYg4x2KOWOOUv13mLG11WWnE+8mDJKUcm3DZ3rO38/vl+mmOH1jZ+K6pvS8xgStQ+2I6gr5Ukty6pwQrmVHALl6SsfDdNUBs5vKqeO+2k2gRLgRFBu4vmKkgJXail3U6+jKzhFjE71qqt3rizZrzRj+MfbDEWyC1G5kQuOBDlTptCR9o2fgi/DtguNjDQn1MkZKK/O02/qQX1SkY7lOq0Yk3VC6hV06Ql0RYqOEoIMugnObxKgjnepB2nmKIbKS6NiKOQ7K2SE4fBE5MpS59eV2T/eZvRN58kYKBfliZW/b/w2cEDExUGTFu3VxNBOCMif83Ai2FruxU75pDKXTkgFa2ugodFVEAUhbxqoCQk3NsyQ4dDgvkLzP8dSQpuSU0aUWkau8upKK+dHnqlXLdKKlSUWYoYqcmRJOjKMmMOWPqQYi/KNOXDy0fG68vSNH4Pzkb/aBRnzm//9HmsXp9YF6a0cYqpuAGUkbo7jmksn1KWiQ6CrE/miHP5wIgbllPGgtDJKBKreSJgGx9ifEtrqL6UmaJgAGDL7ZChs2+oipDApoUlxcmWp85Gn74jYzz5CipGq7gQuDpSRQPuoLGobtpyPIRCGiB8iZ6Pgy0HpUC8Cv9WGs0SGT/BlnYLaqWl+L0Q6FUNladKlLvR2QqArzkqjfAkpVwhd4fx4/M++mNGwj0ZJCW0NjXMhP7ah8hJfZWlzAD7kGZajLrQ5hVxZoojURY6dgGFSphzjVDpKg0B5JQfS8h142FZ94/uwn3Ni7YADUF1jbTgrcKjkmeNIhOTS1vY+yI44MSbthFS4HAMaAvIjX5Tf6IfJcnrgPHB8OM5ccJJd2nMMJzTIekIsoFQKyy20vZKwzg357ty5s9pjdMVkOT76Qg3vA/K+GovJ8XI17ybmwkKD8O1vf9ttJ03ljHqjbiNbwzDywX780KUHBAyn6UHRq8llbntCwJvapdDcWtO8CWwYRjq85U5PFPbu3VucOnWqUw+IXhTx4ZlnnnHbqTOYEwKERveRbqR9+NAw0mFxepZOKTsGbnmQe+65pzqSDkvcbt682f3P2uC5y7eMxWCf/PFBGEtLS6N/ANEwVgv0pJjPO3DgQHHo0KFq73wwEydkGIaRyqDDMcMwjFzMCRmGMSrmhAzDGBVzQoZhjIo5IcMwRsWckGEYo2JOyDCMUTEnZBjGqJgTMgxjVAZxQrymoWUIxoRP9/qfyM0NxhX6ypFgLA68EsJnr8PPYQ8Gr230geUGWDZgCkt4sCKev+RnbjCuIDlCTE4pwVgsWL4DvWCRtJyVGlPo9e7YQw895N745Y3d22+/vdo7DnjrUkjuLWSjOyZHow6WCWHEc+HCheLtt98e7C39zsMxhl7Hjx8vHnvssdEdEJw9e/bqOipGd0yORh04nZMnT7r/v/GNb7jtEHRyQnhEFi/btWvXZJbqoDfGOkZGP0yORhOse3T48OHihRdecKOgQWA4lstYC9s3QXliX4lg/Mq8FeNZziF0+SrEaqFOjqBP6UiOzAXyRYfcT9HUQb6aY1T6/K4rTwjtiW76bU35hl6OdLXTdRH9Ojo5ITXyVMAIYgLxvyAhRUSAKDb7UfJUBfchDk5s6Am6IaB+OIsuF4g6OZIm+5EZRs5vQKZyGF0+SeOjL0uQj9qE9EkbfWtDZSQNtTXpSFe7tLNRD84duQ5hA9mehEzJvMsi2rMCpxIaAUonA4kJSspJ3FQwbL8nMKUrLGWRcyXgLHKJyRHYR5ooXogcPaGPoavsoUybFl73UTnCeqvXPqW2WgT0YYu+Fx/InhNiLAjbt2932ylw5syZYvfu3dWvK1y8eLG4dOmS+z82cc4ymMDdoCZYtJ/nZtauXVvs27fP1b90YEXZCMX69eurs8aBsnODgGc4tm7d6m4UlI63KBWj+MpXvlKdlU5MjvD666+77R133OG2PqwpLpB5V+ragfnHFN59993qv+V8+OGH1X/GkNx1111uK93oQ7YTOnfunNtu2LDBbccGJ8EC4Vu2bKn29AfFZ9Jt06ZNxcaNG4tjx465/eXVuih7VcX58+fdhHzqLUo5MR7iCx/4On36tHMiHEud6CMOxo8zPHjwoLtlyh2tcjjlZHH06FE3gZjDLOSYg8r73nvvuS1Qz9dee60oezPVnnpuvvlmt33nnXfcFnBsOGZuoAxVL+SEXtBetJvvPNEbHlvRsSmC/kkXud0eovITOK8OXdjVKelF1SNKRt3jleze0tWu6+rTLYwNEzifctaVVXMc4dwJ3XcN4wik3WfilWEGgTmLcH6CcikfQptMKYfSIFAHyq85mja6yBE0VIoNwSkTxyhXHyQL0qE+6u6nDiuJ4w+/SY/f1ClVPm2QLuVjq/IhG+EP1UNZ+cdSw9BQVoZPvi5SjxBkxjG/bjEk7zqdSiW7phJQ34zbkCJKWHUCoXFDRyLYT1yMVQZOuponiI1npSxStr74jkX5Ui7SphGplxxmG4pPSHWMQ8iRNOS0KQO/gbqxfyhZUTbyQC6UJ1fH1N7Ep0y+7IeAevv1JC/yAcpOvuSJXoXOcwpOyJeHnCjlCpETapO/6tRXzp2d0KxBoWhMKkh+NLCUX/C7TVi6UoehzhhpHPLSeTQIZQnz7oLqQpoYb10Z6iC+nAmBNChvU/2HkiPnxAyJ9IZy1tRHsg+NmHrUHQPKjlx1TmhcSj92rCuSB+UZSg4rBWWl7JQ7hH0pujl5JySlzwkx5QJ55vA4DgbFqkOKS3wpCMqqKy5x65wLaStfghqmj8Bl7IRcB+RDXYhPmZQeZaW+TXSVoxwQ+fkOmXgqQ1veTRCXNHCo1K0uTcrNfvL1URxkQvvK2YQylk7GesBdIB3SI2/p1ywhr5zQ5mx1nn/xUVs0XZDEqnJCSovG9p0GSlanUChFLI6QANucAY1BufweCP+TbyzdNmRgKY3cBvmjNDI6gowxZhRd5Ah1zgv8du5SJ8X328FP068H52j4I6gH9fH3ax/xcWwix8BS0JCmTYeGQjJJDW1OKOZEpNspjO6EhmrIVFRh/+qIotUJQFfNuobQ8VCpm+AKjMJJBrnC9+OGV/O+YKwoj4yvzqHnyhFU5rpzdNxPMxXJJExbDoOyUTddVOrOC+vL+ZIF5+CYaOs6ueTip9/UixSSe06YNegL+UgmbJGRf4FqYjQnNFTGuZAf+cppSAnqQKCc3+aEUhQohEbS0CEVjI3y1hnNkJBHnZPLlSNwPqGuzXW8i2OVPsXiqo0on2QXonNiV2/VlUB9h+qxSGbkrV5oG1N0Qn5Pjjrxf45dIwPi9O2QZNdUXfOhr+QpoEjkjTKiAJSlDl8BY55dShE6AxqDuCmh7YpB+jSQrvakzW/+950f+1MgbqwcsdCkGDlyBMmqydBRyNQrqI9kU1cG6RtljqUvp153XIZGSJVzDOQkY6WuKq/KL3ugDH2NcqVQ26GLhNRhmJBc+5KdAo1BxqHxrgRSOIwCocWujD5SEM6VAqIkqgP7Q8XNuWLRiHXI2Sj4ZSVf9lEmQqwcMVTulNDUPrlylOERB6NWWam/6tKWRh3ISWlj2Bgz6ZIe7SeD5zj/s5/gOy2VQXUhPuloeCo9ICAXjlH3FJkLPw2/vUiLfSoP266yGAO/TjmgE8RDjn3JdkJDZt4FXcUJKVccFCJ0LPzGmGKguBxPCciiDsmJ8oZKieL6hpdqDKpLSmgzhFw5cg6G6Mfjf/Y1ySEFpS2ZEDAKHIZkw/86Tv2QoeAcjsfKprpxvo6zrWv/OuQIY+1FeZTuPDkgQKaEFB3woZ7UObf3FKNTX0qNOQaqfK7nNpZjcjTk+LtcROSU+16AoNOiZnr5c7BFjTLYsWOHe0lz586d1R6jCybH1QUfo9C7YPowRdelmXlHjhUWywvYMKuqVs4oC7qjeFC6oYZhTB+Gq5i7QtceECitoYaenXpCvD3O2tK8QTv2Z34Mw2hHS5rccsstbqkXFqrv0oth1YDHH3/crUzgL+PSh4X52oZhGLOFYdikvrYBTz31lPOGLIxuPSLDWFyYR9q8ebP7n07HUA4IevWEBAVcWloq9uzZM5mvbxiGMQwMwbiBwQ2pQ4cOVXuHYxAnZBiG0ZVewzHDMIy+mBMyDGNUzAkZhjEq5oQMwxgVc0KGYYyKOSHDMEbFnJBhGKNiTsgwjFExJ2RE4b1Aln7QZ4759DEB2McxzgGemOezwfrENe8T8pvPOBtGM0XxP5BSFimSNDd0AAAAAElFTkSuQmCC;" vertex="1" parent="duzxFuz499XpBN5VaYQ0-8">
          <mxGeometry x="30" y="40" width="107.34" height="65" as="geometry" />
        </mxCell>
        <mxCell id="duzxFuz499XpBN5VaYQ0-9" value="" style="endArrow=none;html=1;rounded=0;entryX=0.5;entryY=1;entryDx=0;entryDy=0;exitX=0.5;exitY=0;exitDx=0;exitDy=0;" edge="1" parent="1" source="duzxFuz499XpBN5VaYQ0-7" target="duzxFuz499XpBN5VaYQ0-1">
          <mxGeometry width="50" height="50" relative="1" as="geometry">
            <mxPoint x="220" y="190" as="sourcePoint" />
            <mxPoint x="270" y="140" as="targetPoint" />
          </mxGeometry>
        </mxCell>
        <mxCell id="duzxFuz499XpBN5VaYQ0-13" value="" style="group" vertex="1" connectable="0" parent="1">
          <mxGeometry x="240" y="280" width="120" height="60" as="geometry" />
        </mxCell>
        <mxCell id="duzxFuz499XpBN5VaYQ0-10" value="" style="rounded=0;whiteSpace=wrap;html=1;" vertex="1" parent="duzxFuz499XpBN5VaYQ0-13">
          <mxGeometry width="120" height="60" as="geometry" />
        </mxCell>
        <mxCell id="duzxFuz499XpBN5VaYQ0-12" value="&lt;font style=&quot;font-size: 14px;&quot;&gt;&lt;b&gt;Resh1 = true&lt;/b&gt;&lt;/font&gt;" style="text;html=1;strokeColor=none;fillColor=none;align=center;verticalAlign=middle;whiteSpace=wrap;rounded=0;" vertex="1" parent="duzxFuz499XpBN5VaYQ0-13">
          <mxGeometry width="120" height="60" as="geometry" />
        </mxCell>
        <mxCell id="duzxFuz499XpBN5VaYQ0-14" value="" style="group" vertex="1" connectable="0" parent="1">
          <mxGeometry x="480" y="280" width="120" height="60" as="geometry" />
        </mxCell>
        <mxCell id="duzxFuz499XpBN5VaYQ0-15" value="" style="rounded=0;whiteSpace=wrap;html=1;" vertex="1" parent="duzxFuz499XpBN5VaYQ0-14">
          <mxGeometry width="120" height="60" as="geometry" />
        </mxCell>
        <mxCell id="duzxFuz499XpBN5VaYQ0-16" value="&lt;font style=&quot;font-size: 14px;&quot;&gt;&lt;b&gt;Resh1 = false&lt;/b&gt;&lt;/font&gt;" style="text;html=1;strokeColor=none;fillColor=none;align=center;verticalAlign=middle;whiteSpace=wrap;rounded=0;" vertex="1" parent="duzxFuz499XpBN5VaYQ0-14">
          <mxGeometry width="120" height="60" as="geometry" />
        </mxCell>
        <mxCell id="duzxFuz499XpBN5VaYQ0-17" value="" style="group" vertex="1" connectable="0" parent="1">
          <mxGeometry x="360" y="400" width="120" height="60" as="geometry" />
        </mxCell>
        <mxCell id="duzxFuz499XpBN5VaYQ0-18" value="Начало&lt;br style=&quot;font-size: 14px;&quot;&gt;&lt;b style=&quot;font-size: 14px;&quot;&gt;main&lt;/b&gt;" style="strokeWidth=1;html=1;shape=mxgraph.flowchart.terminator;whiteSpace=wrap;rounded=1;strokeColor=default;fontFamily=Times New Roman;fontSize=14;fontColor=#FFFFFF;fillColor=none;labelBackgroundColor=none;labelBorderColor=none;" vertex="1" parent="duzxFuz499XpBN5VaYQ0-17">
          <mxGeometry width="119.99999999999999" height="60" as="geometry" />
        </mxCell>
        <mxCell id="duzxFuz499XpBN5VaYQ0-19" value="&lt;b&gt;&lt;font style=&quot;font-size: 14px;&quot;&gt;Конец&lt;/font&gt;&lt;/b&gt;" style="text;html=1;strokeColor=none;fillColor=none;align=center;verticalAlign=middle;whiteSpace=wrap;rounded=0;" vertex="1" parent="duzxFuz499XpBN5VaYQ0-17">
          <mxGeometry width="119.99999999999999" height="60" as="geometry" />
        </mxCell>
        <mxCell id="duzxFuz499XpBN5VaYQ0-20" value="" style="endArrow=none;html=1;rounded=0;entryX=0;entryY=0.5;entryDx=0;entryDy=0;exitX=0.5;exitY=0;exitDx=0;exitDy=0;" edge="1" parent="1" source="duzxFuz499XpBN5VaYQ0-12" target="duzxFuz499XpBN5VaYQ0-7">
          <mxGeometry width="50" height="50" relative="1" as="geometry">
            <mxPoint x="230" y="170" as="sourcePoint" />
            <mxPoint x="280" y="120" as="targetPoint" />
            <Array as="points">
              <mxPoint x="300" y="205" />
            </Array>
          </mxGeometry>
        </mxCell>
        <mxCell id="duzxFuz499XpBN5VaYQ0-21" value="" style="endArrow=none;html=1;rounded=0;entryX=1;entryY=0.5;entryDx=0;entryDy=0;exitX=0.5;exitY=0;exitDx=0;exitDy=0;" edge="1" parent="1" source="duzxFuz499XpBN5VaYQ0-16" target="duzxFuz499XpBN5VaYQ0-7">
          <mxGeometry width="50" height="50" relative="1" as="geometry">
            <mxPoint x="310" y="290" as="sourcePoint" />
            <mxPoint x="350" y="215" as="targetPoint" />
            <Array as="points">
              <mxPoint x="540" y="205" />
            </Array>
          </mxGeometry>
        </mxCell>
        <mxCell id="duzxFuz499XpBN5VaYQ0-22" value="" style="endArrow=none;html=1;rounded=0;entryX=0.5;entryY=0;entryDx=0;entryDy=0;" edge="1" parent="1" target="duzxFuz499XpBN5VaYQ0-19">
          <mxGeometry width="50" height="50" relative="1" as="geometry">
            <mxPoint x="420" y="360" as="sourcePoint" />
            <mxPoint x="350" y="400" as="targetPoint" />
          </mxGeometry>
        </mxCell>
        <mxCell id="duzxFuz499XpBN5VaYQ0-23" value="" style="endArrow=none;html=1;rounded=0;entryX=0.5;entryY=1;entryDx=0;entryDy=0;" edge="1" parent="1" target="duzxFuz499XpBN5VaYQ0-16">
          <mxGeometry width="50" height="50" relative="1" as="geometry">
            <mxPoint x="420" y="360" as="sourcePoint" />
            <mxPoint x="430" y="410" as="targetPoint" />
            <Array as="points">
              <mxPoint x="540" y="360" />
            </Array>
          </mxGeometry>
        </mxCell>
        <mxCell id="duzxFuz499XpBN5VaYQ0-24" value="" style="endArrow=none;html=1;rounded=0;entryX=0.5;entryY=1;entryDx=0;entryDy=0;" edge="1" parent="1" target="duzxFuz499XpBN5VaYQ0-12">
          <mxGeometry width="50" height="50" relative="1" as="geometry">
            <mxPoint x="420" y="360" as="sourcePoint" />
            <mxPoint x="550" y="350" as="targetPoint" />
            <Array as="points">
              <mxPoint x="300" y="360" />
            </Array>
          </mxGeometry>
        </mxCell>
      </root>
    </mxGraphModel>
  </diagram>
</mxfile>
